<svg xmlns="http://www.w3.org/2000/svg" xmlns:xlink="http://www.w3.org/1999/xlink" viewBox="0 0 57.709 66.709" fill="#fff" fill-rule="evenodd" stroke="#000" stroke-linecap="round" stroke-linejoin="round"><use xlink:href="#T" x=".855" y=".855"/><defs><linearGradient id="A" x1="0.01%" y1="50.00%" x2="100.01%" y2="50.00%"><stop offset="0%" stop-color="#cbdb2a"/><stop offset="100%" stop-color="#82b040"/></linearGradient><linearGradient id="B" x1="-0.09%" y1="50.04%" x2="99.91%" y2="50.04%"><stop offset="0%" stop-color="#cbdb2a"/><stop offset="100%" stop-color="#82b040"/></linearGradient><linearGradient id="C" x1="-0.00%" y1="50.04%" x2="100.00%" y2="50.04%"><stop offset="0%" stop-color="#cbdb2a"/><stop offset="100%" stop-color="#82b040"/></linearGradient><linearGradient id="D" x1="-178.32%" y1="169.73%" x2="-7.41%" y2="169.73%"><stop offset="0%" stop-color="#cbdb2a"/><stop offset="100%" stop-color="#82b040"/></linearGradient><linearGradient y2="67.24%" x2="65.65%" y1="67.24%" x1="0.00%" id="E"><stop stop-color="#cbdb2a" offset="0%"/><stop stop-color="#82b040" offset="100%"/></linearGradient><linearGradient y2="50.00%" x2="100.00%" y1="50.00%" x1="-0.00%" id="F"><stop stop-color="#0d4d95" offset="0%"/><stop stop-color="#0f213c" offset="100%"/></linearGradient><linearGradient y2="7.87%" x2="-2.35%" y1="7.87%" x1="-50.96%" id="G"><stop stop-color="#0d4d95" offset="0%"/><stop stop-color="#0f213c" offset="100%"/></linearGradient><linearGradient y2="-138.13%" x2="-69.16%" y1="-138.13%" x1="-75.32%" id="H"><stop stop-color="#0d4d95" offset="0%"/><stop stop-color="#0f213c" offset="100%"/></linearGradient><linearGradient y2="-222.93%" x2="-104.85%" y1="-222.93%" x1="-114.19%" id="I"><stop stop-color="#0d4d95" offset="0%"/><stop stop-color="#0f213c" offset="100%"/></linearGradient><linearGradient y2="-141.14%" x2="-274.99%" y1="-141.14%" x1="-278.65%" id="J"><stop stop-color="#0d4d95" offset="0%"/><stop stop-color="#0f213c" offset="100%"/></linearGradient><linearGradient y2="49.99%" x2="100.00%" y1="49.99%" x1="-0.00%" id="K"><stop stop-color="#ed3823" offset="0%"/><stop stop-color="#be1e22" offset="100%"/></linearGradient><linearGradient y2="7.86%" x2="150.96%" y1="7.86%" x1="102.35%" id="L"><stop stop-color="#ed3823" offset="0%"/><stop stop-color="#be1e22" offset="100%"/></linearGradient><linearGradient y2="-110.45%" x2="-639.65%" y1="-110.45%" x1="-658.79%" id="M"><stop stop-color="#ed3823" offset="0%"/><stop stop-color="#be1e22" offset="100%"/></linearGradient><linearGradient y2="-69.79%" x2="-679.94%" y1="-69.79%" x1="-699.07%" id="N"><stop stop-color="#ed3823" offset="0%"/><stop stop-color="#be1e22" offset="100%"/></linearGradient><linearGradient y2="-107.86%" x2="-801.25%" y1="-107.86%" x1="-804.91%" id="O"><stop stop-color="#ed3823" offset="0%"/><stop stop-color="#be1e22" offset="100%"/></linearGradient><linearGradient y2="50.00%" x2="100.00%" y1="50.00%" x1="-0.00%" id="P"><stop stop-color="#ffc80b" offset="0%"/><stop stop-color="#f8991d" offset="100%"/></linearGradient><linearGradient y2="50.00%" x2="100.00%" y1="50.00%" x1="0.00%" id="Q"><stop stop-color="#ffc80b" offset="0%"/><stop stop-color="#f8991d" offset="100%"/></linearGradient><linearGradient y2="50.00%" x2="99.99%" y1="50.00%" x1="-0.01%" id="R"><stop stop-color="#ffc80b" offset="0%"/><stop stop-color="#f8991d" offset="100%"/></linearGradient><path id="S" d="M.581 15.616v7.96l8.726 4.667v-7.96z"/></defs><symbol id="T" overflow="visible"><g stroke="none" fill-rule="nonzero"><path d="M27.838 17.316L0 32.142v17.031L27.838 64l27.838-14.826V32.142z"/><path d="M27.879 37.323l-8.778 4.726 8.778 4.726 8.776-4.726z" fill="url(#A)"/><path d="M37.08 32.344l-8.778 4.726 8.778 4.726 8.776-4.726z" fill="url(#B)"/><path d="M46.25 27.371l-8.778 4.726 8.778 4.726 8.776-4.726z" fill="url(#A)"/><path d="M18.694 32.344L9.918 37.07l8.776 4.726 8.778-4.726z" fill="url(#C)"/><path d="M27.879 27.371l-8.778 4.726 8.778 4.726 8.776-4.726z" fill="url(#D)"/><path d="M37.064 22.396l-8.777 4.726 8.777 4.726 8.777-4.726z" fill="url(#A)"/><g fill="url(#E)"><path d="M9.509 27.372L.732 32.098l8.777 4.726 8.777-4.726z"/><path d="M18.694 22.396l-8.777 4.726 8.777 4.726 8.777-4.726z"/></g><path d="M27.879 17.421l-8.777 4.726 8.777 4.726 8.777-4.726z" fill="url(#C)"/><path d="M27.838 0L0 14.826v8.898L27.838 38.55l27.838-14.826v-8.897z"/><use xlink:href="#S" fill="url(#F)"/><g fill="url(#G)"><use xlink:href="#S" x="18.37" y="9.797"/><use xlink:href="#S" x="9.146" y="4.937"/></g><g fill="url(#H)"><use xlink:href="#S" y="17.03"/><use xlink:href="#S" x="18.37" y="26.828"/></g><g fill="url(#I)"><use xlink:href="#S" x="9.146" y="21.967"/><use xlink:href="#S" y="25.45"/></g><g fill="url(#J)"><use xlink:href="#S" x="18.37" y="35.247"/><use xlink:href="#S" x="9.146" y="30.387"/></g><path d="M46.429 20.284v7.96l8.726-4.667v-7.96z" fill="url(#K)"/><g fill="url(#L)"><path d="M28.059 30.082v7.96l8.726-4.666v-7.96z"/><path d="M37.282 25.222v7.96l8.726-4.666v-7.96z"/></g><path d="M46.429 37.315v7.96l8.726-4.667v-7.96z" fill="url(#M)"/><path d="M28.059 47.113v7.96l8.726-4.667v-7.96z" fill="url(#K)"/><path d="M37.282 42.252v7.96l8.726-4.667v-7.96z" fill="url(#M)"/><path d="M46.429 45.734v7.96l8.726-4.667v-7.96z" fill="url(#K)"/><path d="M28.059 55.532v7.96l8.726-4.667v-7.96z" fill="url(#N)"/><path d="M37.282 50.672v7.96l8.726-4.667v-7.96z" fill="url(#O)"/><path d="M27.879 20.292l-8.777 4.726 8.777 4.726 8.777-4.726z" fill="url(#P)"/><path d="M37.064 15.316l-8.777 4.726 8.777 4.726 8.777-4.726z" fill="url(#Q)"/><path d="M46.25 10.341l-8.776 4.726 8.777 4.726 8.777-4.726z" fill="url(#R)"/><path d="M18.694 15.316l-8.777 4.726 8.777 4.726 8.777-4.726z" fill="url(#Q)"/><g fill="url(#R)"><path d="M27.88 10.341l-8.776 4.726 8.777 4.726 8.777-4.726z"/><path d="M37.065 5.366l-8.776 4.726 8.777 4.726 8.777-4.726z"/><path d="M9.509 10.341L.734 15.067l8.777 4.726 8.777-4.726z"/><path d="M18.694 5.366l-8.775 4.726 8.777 4.726 8.777-4.726z"/><path d="M27.88.391l-8.776 4.726 8.777 4.726 8.777-4.726z"/></g></g></symbol></svg>