<?xml version="1.0" encoding="UTF-8"?> <svg xmlns="http://www.w3.org/2000/svg" width="614" height="546" viewBox="0 0 614 546" fill="none"> <path d="M235.313 345.866L221.126 363.57L204.341 384.48L196.899 393.731L196.206 394.587L191.015 401.058L190.496 401.7L150.553 451.472L144.054 459.572L143.258 460.583L131.374 475.36L124.3 484.191L103.505 510.093L81.2259 505.323L70.2153 502.956L70.0751 502.934L69.4793 502.808L68.7299 502.629L64.2871 501.679L62.3155 501.264L60.7558 500.939L60.5718 500.902L60.4841 500.871L59.1084 500.582L58.359 500.403L53.43 499.366L37.8146 496.02L36.7191 495.774L2.30297 488.408L6.53039 475.399L11.3341 460.671L11.6162 459.864L22.0723 427.769L22.6865 425.871L38.1344 378.511L71.8581 372.932L72.5918 372.804L76.5579 372.16L77.9425 371.931L92.0504 369.592L93.8018 369.299L100.598 368.162L100.62 368.17L102.184 367.921L194.248 352.665L194.951 352.554L204.066 351.049L209.299 350.162L235.313 345.866Z" fill="#97C3F9"></path> <path d="M602.812 34.8016L598.116 58.3707L597.184 63.0652L596.96 64.1449L595.771 70.0734L595.589 70.9748L594.917 74.3535L593.616 80.9325L590.354 97.3632L585.549 98.722L574.707 101.823L574.141 101.992L569.212 103.386L567.715 103.806L565.462 104.46L564.455 104.764L551.311 108.5L517.355 118.193L515.417 118.747L510.953 120.016L509.481 120.445L502.547 122.423L501.674 122.668L497.708 123.796L497.142 123.966L495.08 124.555L469.123 131.961L461 134.283L482.595 88.4884L482.933 87.7585L483.682 86.1875L484.175 85.1289L486.448 80.3434L487.234 78.6757L487.554 77.9942L487.817 77.4576L490.348 72.0777L491.957 68.6458L492.357 67.8288L492.386 67.7563L516.756 16.0932L517.016 16.1386L546.968 22.6435L558.953 25.2638L560.471 25.5749L560.9 25.6857L562.467 26.0155L563.132 26.1625L563.749 26.2907L565.412 26.658L566.921 26.9932L602.812 34.8016Z" fill="#97C3F9"></path> <path d="M535.674 60.072L555.856 61.0379L533.885 71.9901L511.899 82.9088L523.688 61.3958L535.51 39.868L535.674 60.072Z" fill="white"></path> <path d="M452.468 399.253L456.624 262.804C457.009 252.394 448.655 243.782 438.288 243.782H306.722C296.826 243.782 288.729 251.622 288.386 261.476L284.188 395.826L452.468 399.253Z" fill="#FE7934"></path> <path d="M429.462 399.253L433.618 262.804C434.003 252.394 425.649 243.782 415.282 243.782H283.716C273.82 243.782 265.723 251.622 265.38 261.476L261.182 399.253H429.462Z" fill="#FDD047"></path> <path d="M430.447 395.098L428.734 395.055L432.846 261.305C432.846 246.267 418.794 244.725 417.809 244.596H352.99V242.883H417.895H417.938C418.109 242.883 434.56 244.425 434.56 261.305L430.447 395.098Z" fill="white"></path> <path d="M344.593 273.9H303.723L305.393 250.894L305.736 246.267L307.321 224.975L307.835 217.778H337.824L338.724 225.189V225.232L344.593 273.9Z" fill="#FFB1DF"></path> <path d="M338.724 225.189C335.94 239.37 320.302 249.395 305.437 250.851L305.779 246.224L307.322 224.975L338.724 225.189Z" fill="#D35EAF"></path> <path d="M300.553 182.477C300.553 182.477 284.616 237.785 310.663 240.098C320.345 240.955 336.411 235.643 342.152 217.307C342.152 217.307 361.002 205.225 348.92 199.87L345.065 184.404L300.553 182.477Z" fill="#FFB1DF"></path> <path d="M341.68 208.138L336.839 210.066L334.911 191.687C334.911 191.687 295.24 206.211 286.543 188.774C277.847 171.338 302.009 160.713 331.056 173.309C331.056 173.309 355.261 174.294 349.434 200.384C349.434 200.384 342.666 199.399 341.68 208.138Z" fill="#1B2638"></path> <path d="M344.679 254.664C344.679 254.664 326.514 276.47 303.508 254.664L282.216 261.39C265.465 266.703 252.099 279.426 245.972 295.92L207.801 398.782L381.565 396.983L382.165 337.048L426.977 316.441L408.598 281.954C401.872 269.359 389.533 260.79 375.439 258.863L344.679 254.664Z" fill="#0047FF"></path> <path d="M437.944 389.1C397.973 396.383 326.514 376.976 326.514 376.976C325.058 376.548 323.729 375.991 322.487 375.391C310.149 369.393 307.15 356.412 307.15 356.412C299.867 362.453 297.468 360.054 297.468 360.054C297.468 360.054 307.707 347.544 313.833 344.545C314.047 344.459 314.219 344.374 314.39 344.288C320.431 341.846 330.113 350.329 330.113 350.329L390.648 353.97L383.193 339.576L381.737 336.748L422.821 318.412C423.935 320.254 424.963 322.053 425.949 323.767C460.822 384.516 437.944 389.1 437.944 389.1Z" fill="#FFB1DF"></path> <path d="M322.487 375.391C310.149 369.393 307.15 356.412 307.15 356.412C299.867 362.453 297.468 360.054 297.468 360.054C297.468 360.054 307.707 347.544 313.833 344.545L322.487 375.391Z" fill="#D35EAF"></path> <path d="M370.431 352.437L370.342 354.577L426.371 356.901L426.459 354.761L370.431 352.437Z" fill="#D35EAF"></path> <path d="M308.692 226.046C311.048 227.631 316.061 229.859 321.073 224.632C321.545 224.161 321.159 223.347 320.474 223.433L308.992 224.761C308.35 224.804 308.178 225.661 308.692 226.046Z" fill="white"></path> <path d="M311.562 220.691L312.034 207.753L313.747 207.839L313.362 218.892L316.061 218.72L316.146 220.434L311.562 220.691Z" fill="#D35EAF"></path> <path d="M303.208 209.424C304.012 209.424 304.664 208.772 304.664 207.967C304.664 207.163 304.012 206.51 303.208 206.51C302.403 206.51 301.751 207.163 301.751 207.967C301.751 208.772 302.403 209.424 303.208 209.424Z" fill="#D35EAF"></path> <path d="M322.573 209.424C323.377 209.424 324.029 208.772 324.029 207.967C324.029 207.163 323.377 206.51 322.573 206.51C321.768 206.51 321.116 207.163 321.116 207.967C321.116 208.772 321.768 209.424 322.573 209.424Z" fill="#D35EAF"></path> <path d="M307.28 203.83C307.382 203.009 305.562 202.105 303.214 201.812C300.866 201.52 298.88 201.949 298.777 202.77C298.675 203.592 300.495 204.496 302.843 204.788C305.191 205.081 307.177 204.652 307.28 203.83Z" fill="#D35EAF"></path> <path d="M323.364 203.914C325.713 203.632 327.537 202.737 327.439 201.915C327.34 201.093 325.356 200.654 323.007 200.936C320.657 201.217 318.833 202.112 318.931 202.935C319.03 203.757 321.014 204.195 323.364 203.914Z" fill="#D35EAF"></path> <path d="M397.16 269.316C382.936 257.834 348.406 255.607 344.465 255.392C336.625 262.847 328.742 266.274 320.988 265.589C309.763 264.603 303.037 255.435 302.78 255.05L304.151 254.064C304.237 254.15 310.749 262.975 321.159 263.918C328.485 264.56 336.025 261.219 343.565 253.936L343.822 253.679H344.208C345.793 253.764 382.808 255.564 398.273 267.988L397.16 269.316Z" fill="white"></path> <path d="M426.077 323.81L383.279 339.576L381.822 336.748L422.907 318.412C424.021 320.254 425.049 322.053 426.077 323.81Z" fill="#D35EAF"></path> <path d="M367.88 311.767L366.398 312.628L385.869 346.157L387.351 345.297L367.88 311.767Z" fill="white"></path> <path d="M113.252 273.771H110.682V228.359H171.516V126.397H282.904V94.2662H285.474V128.968H174.087V230.93H113.252V273.771Z" fill="#30A9FA"></path> <path d="M188.653 322.61H110.682V293.05H113.252V320.04H188.653V322.61Z" fill="#30A9FA"></path> <path d="M111.751 296.477C114.472 296.477 116.678 294.271 116.678 291.55C116.678 288.829 114.472 286.624 111.751 286.624C109.03 286.624 106.824 288.829 106.824 291.55C106.824 294.271 109.03 296.477 111.751 296.477Z" fill="#FDD047"></path> <path d="M284.401 97.2652C287.122 97.2652 289.328 95.0594 289.328 92.3384C289.328 89.6175 287.122 87.4117 284.401 87.4117C281.68 87.4117 279.475 89.6175 279.475 92.3384C279.475 95.0594 281.68 97.2652 284.401 97.2652Z" fill="#FDD047"></path> <path d="M111.751 278.912C114.472 278.912 116.678 276.706 116.678 273.985C116.678 271.264 114.472 269.059 111.751 269.059C109.03 269.059 106.824 271.264 106.824 273.985C106.824 276.706 109.03 278.912 111.751 278.912Z" fill="#407BFF"></path> <path d="M285.474 79.2717H282.903V63.3348H326.601V65.9053H285.474V79.2717Z" fill="#30A9FA"></path> <path d="M284.401 84.4128C287.122 84.4128 289.328 82.207 289.328 79.4861C289.328 76.7651 287.122 74.5593 284.401 74.5593C281.68 74.5593 279.475 76.7651 279.475 79.4861C279.475 82.207 281.68 84.4128 284.401 84.4128Z" fill="#407BFF"></path> <path d="M507.819 160.67H505.249V84.4128H442.786V81.8423H507.819V160.67Z" fill="#30A9FA"></path> <path d="M86.2185 89.9821H243.489C246.059 89.9821 248.159 92.0813 248.159 94.6518V200.041C248.159 202.612 246.059 204.711 243.489 204.711H86.2185C83.648 204.711 81.5488 202.612 81.5488 200.041V94.6518C81.5488 92.0813 83.648 89.9821 86.2185 89.9821Z" fill="#407BFF"></path> <path d="M243.531 107.761H86.5176V198.885H243.531V107.761Z" fill="white"></path> <path d="M187.323 112.045H91.3154V175.45H187.323V112.045Z" fill="#407BFF"></path> <path d="M134.371 134.28V153.773L147.481 143.876L134.371 134.28Z" fill="white"></path> <path d="M138.656 163.026C128.245 163.026 119.806 154.587 119.806 144.176C119.806 133.766 128.245 125.326 138.656 125.326C149.066 125.326 157.506 133.766 157.506 144.176C157.506 154.587 149.066 163.026 138.656 163.026ZM138.656 129.31C130.473 129.31 123.79 135.951 123.79 144.176C123.79 152.402 130.43 159.042 138.656 159.042C146.839 159.042 153.522 152.402 153.522 144.176C153.522 135.951 146.839 129.31 138.656 129.31Z" fill="white"></path> <path d="M91.3154 99.2358C91.3154 101.164 92.8577 102.706 94.7856 102.706H152.022C153.949 102.706 155.492 101.164 155.492 99.2358C155.492 97.308 153.949 95.7657 152.022 95.7657H94.7856C92.8577 95.7228 91.3154 97.308 91.3154 99.2358Z" fill="white"></path> <path d="M239.504 112.045H191.607V193.915H239.504V112.045Z" fill="#407BFF"></path> <path d="M197.52 119.928C197.52 120.871 198.291 121.685 199.276 121.685H208.915C209.858 121.685 210.672 120.914 210.672 119.928C210.672 118.986 209.901 118.172 208.915 118.172H199.276C198.291 118.215 197.52 118.986 197.52 119.928Z" fill="white"></path> <path d="M197.52 132.267C197.52 133.209 198.291 134.023 199.276 134.023H218.94C219.883 134.023 220.697 133.252 220.697 132.267C220.697 131.324 219.926 130.51 218.94 130.51H199.276C198.291 130.51 197.52 131.281 197.52 132.267Z" fill="white"></path> <path d="M197.52 126.097C197.52 127.04 198.291 127.854 199.276 127.854H224.809C225.752 127.854 226.566 127.083 226.566 126.097C226.566 125.155 225.795 124.341 224.809 124.341H199.276C198.291 124.341 197.52 125.155 197.52 126.097Z" fill="white"></path> <path d="M197.52 149.917C197.52 150.86 198.291 151.674 199.276 151.674H224.809C225.752 151.674 226.566 150.902 226.566 149.917C226.566 148.975 225.795 148.161 224.809 148.161H199.276C198.291 148.161 197.52 148.932 197.52 149.917Z" fill="white"></path> <path d="M197.52 156.343C197.52 157.286 198.291 158.1 199.276 158.1H224.809C225.752 158.1 226.566 157.329 226.566 156.343C226.566 155.401 225.795 154.587 224.809 154.587H199.276C198.291 154.587 197.52 155.358 197.52 156.343Z" fill="white"></path> <path d="M197.52 162.727C197.52 163.669 198.291 164.483 199.276 164.483H216.498C217.441 164.483 218.255 163.712 218.255 162.727C218.255 161.784 217.484 160.97 216.498 160.97H199.233C198.291 161.013 197.52 161.784 197.52 162.727Z" fill="white"></path> <path d="M197.52 141.349C197.52 141.863 197.948 142.291 198.462 142.291H232.949C233.463 142.291 233.892 141.863 233.892 141.349C233.892 140.835 233.463 140.406 232.949 140.406H198.462C197.905 140.406 197.52 140.835 197.52 141.349Z" fill="white"></path> <path d="M197.52 170.781C197.52 171.295 197.948 171.723 198.462 171.723H232.949C233.463 171.723 233.892 171.295 233.892 170.781C233.892 170.267 233.463 169.838 232.949 169.838H198.462C197.905 169.838 197.52 170.267 197.52 170.781Z" fill="white"></path> <path d="M219.026 102.449C220.587 102.449 221.853 101.183 221.853 99.6214C221.853 98.0598 220.587 96.7939 219.026 96.7939C217.464 96.7939 216.198 98.0598 216.198 99.6214C216.198 101.183 217.464 102.449 219.026 102.449Z" fill="white"></path> <path d="M228.408 102.449C229.969 102.449 231.235 101.183 231.235 99.6214C231.235 98.0598 229.969 96.7939 228.408 96.7939C226.846 96.7939 225.58 98.0598 225.58 99.6214C225.58 101.183 226.846 102.449 228.408 102.449Z" fill="white"></path> <path d="M238.047 102.449C239.609 102.449 240.875 101.183 240.875 99.6214C240.875 98.0598 239.609 96.7939 238.047 96.7939C236.486 96.7939 235.22 98.0598 235.22 99.6214C235.22 101.183 236.486 102.449 238.047 102.449Z" fill="white"></path> <path d="M560.086 385.501L101.899 409.792L48.5615 414.976V427.143H523.029H526.242L560.086 397.668V385.501Z" fill="#D3D3D3"></path> <path d="M101.899 385.587H560.086L523.029 414.976H48.5615L101.899 385.587Z" fill="#E6E6E6"></path> <path d="M523.201 416.219H48.5625V414.076H522.43L559.402 384.73L560.773 386.444L523.201 416.219Z" fill="white"></path> <path d="M408.427 360.31C408.427 356.369 400.116 354.227 392.276 354.227C384.436 354.227 376.125 356.369 376.125 360.31C376.125 360.525 376.168 360.739 376.211 360.91H376.082L378.995 410.52L379.038 411.077L379.595 411.249C379.809 411.334 385.25 413.177 392.233 413.177C400.073 413.177 404.7 411.334 404.914 411.249L405.428 411.035L408.384 360.867C408.384 360.739 408.427 360.525 408.427 360.31ZM392.276 355.941C401.23 355.941 406.714 358.511 406.714 360.31C406.714 362.153 401.23 364.68 392.276 364.68C383.322 364.68 377.839 362.11 377.839 360.31C377.839 358.468 383.322 355.941 392.276 355.941ZM403.757 409.878C402.387 410.349 398.274 411.506 392.233 411.506C386.792 411.506 382.208 410.306 380.709 409.835L377.967 363.224C380.837 365.323 386.707 366.394 392.319 366.394C397.845 366.394 403.629 365.323 406.542 363.309L403.757 409.878Z" fill="#FFFFFD"></path> <path d="M381.266 374.191H402.9L400.63 407.35C400.63 407.35 399.045 409.15 392.276 409.15C385.079 409.15 383.493 407.35 383.493 407.35L381.266 374.191Z" fill="#30A9FA"></path> <path d="M392.104 376.462C398.091 376.462 402.943 375.368 402.943 374.02C402.943 372.671 398.091 371.578 392.104 371.578C386.118 371.578 381.266 372.671 381.266 374.02C381.266 375.368 386.118 376.462 392.104 376.462Z" fill="white"></path> <path d="M442.786 67.7476V99.2359C442.786 102.92 439.787 105.919 436.06 105.919H430.619L433.489 113.759C434.175 115.601 432.204 117.272 430.49 116.372L410.912 105.919H377.153C373.426 105.919 370.427 102.92 370.427 99.2359V67.7476C370.427 64.0204 373.426 61.0215 377.153 61.0215H436.102C439.787 61.0643 442.786 64.0632 442.786 67.7476Z" fill="#0879F9"></path> <g opacity="0.81"> <path opacity="0.81" d="M399.13 41.9999H334.011C329.898 41.9999 326.6 45.2987 326.6 49.4115V84.1986C326.6 88.3114 329.898 91.6101 334.011 91.6101H340.052L336.882 100.264C336.153 102.278 338.295 104.163 340.18 103.134L361.815 91.6101H399.13C403.243 91.6101 406.541 88.3114 406.541 84.1986V49.4115C406.541 45.2987 403.2 41.9999 399.13 41.9999Z" fill="#30A9FA"></path> </g> <path d="M441.009 48.9655L439.295 55.823L441.789 56.4463L443.503 49.5889L441.009 48.9655Z" fill="#30A9FA"></path> <path d="M449.115 53.8666L443.364 57.9764L444.859 60.0677L450.61 55.9579L449.115 53.8666Z" fill="#30A9FA"></path> <path d="M446.182 62.6711L445.927 65.2288L452.96 65.9316L453.216 63.3739L446.182 62.6711Z" fill="#30A9FA"></path> <path d="M172.714 385.03H366.485L323.729 403.195L178.797 400.796L172.714 385.03Z" fill="#0879F9"></path> <path d="M159.091 307.53H292.542C296.14 307.53 299.311 309.929 300.296 313.442L322.445 392.999C323.859 398.14 320.003 403.195 314.691 403.195H181.283C177.684 403.195 174.514 400.796 173.529 397.283L151.38 317.726C149.923 312.628 153.779 307.53 159.091 307.53Z" fill="#C1E1FB"></path> <path d="M366.485 385.03V391.456L322.445 408.893L175.156 408.036V398.354L320.945 399.553L366.485 385.03Z" fill="#82C5F8"></path> <path d="M233.065 363.83C237.405 362.66 239.826 357.638 238.471 352.612C237.117 347.586 232.5 344.46 228.16 345.63C223.819 346.8 221.399 351.822 222.753 356.848C224.108 361.874 228.724 365 233.065 363.83Z" fill="white"></path> <path d="M321.717 394.926L300.339 314.513C299.397 311.043 296.269 308.601 292.67 308.601H207.845V306.459H292.67C297.254 306.459 301.239 309.544 302.438 313.956L323.816 394.369L321.717 394.926Z" fill="white"></path> <path d="M322.059 400.796H321.888L174.942 399.51V397.368L321.717 398.654L366.1 384.13L366.786 386.187L322.059 400.796Z" fill="white"></path> <path d="M19 428H605.797" stroke="#0F0A46" stroke-width="1.28524" stroke-miterlimit="10"></path> <path d="M456.838 154.801V264.261C456.838 269.316 460.908 273.386 465.963 273.386H574.609C579.664 273.386 583.734 269.316 583.734 264.261V154.801C583.734 149.746 579.664 145.676 574.609 145.676H465.963C460.951 145.719 456.838 149.789 456.838 154.801Z" fill="#CDE7F9"></path> <path d="M571.567 202.269H468.576V261.819H571.567V202.269Z" fill="white"></path> <path d="M571.567 157.629H468.576V195.243H571.567V157.629Z" fill="white"></path> <path d="M492.011 257.877C498.116 257.877 503.064 252.929 503.064 246.824C503.064 240.72 498.116 235.771 492.011 235.771C485.907 235.771 480.958 240.72 480.958 246.824C480.958 252.929 485.907 257.877 492.011 257.877Z" fill="#0879F9"></path> <path d="M488.969 253.379L483.785 248.452C483.356 248.067 483.356 247.381 483.742 246.995C484.128 246.567 484.813 246.567 485.199 246.953L488.883 250.466L498.094 241.041C498.479 240.612 499.165 240.612 499.55 241.041C499.979 241.426 499.979 242.112 499.55 242.497L488.969 253.379Z" fill="white"></path> <path d="M540.165 240.569H506.834V242.968H540.165V240.569Z" fill="#CDE7F9"></path> <path d="M559.914 245.882H506.834V248.281H559.914V245.882Z" fill="#CDE7F9"></path> <path d="M559.914 251.237H506.834V253.636H559.914V251.237Z" fill="#CDE7F9"></path> <path d="M492.011 230.073C498.116 230.073 503.064 225.125 503.064 219.02C503.064 212.916 498.116 207.967 492.011 207.967C485.907 207.967 480.958 212.916 480.958 219.02C480.958 225.125 485.907 230.073 492.011 230.073Z" fill="#0879F9"></path> <path d="M488.969 225.575L483.785 220.648C483.356 220.262 483.356 219.577 483.742 219.191C484.128 218.763 484.813 218.763 485.199 219.149L488.883 222.662L498.094 213.237C498.479 212.808 499.165 212.808 499.55 213.237C499.979 213.622 499.979 214.308 499.55 214.693L488.969 225.575Z" fill="white"></path> <path d="M540.165 212.722H506.834V215.122H540.165V212.722Z" fill="#CDE7F9"></path> <path d="M559.914 218.078H506.834V220.477H559.914V218.078Z" fill="#CDE7F9"></path> <path d="M559.914 223.39H506.834V225.789H559.914V223.39Z" fill="#CDE7F9"></path> <path d="M559.742 170.781H480.914V183.633H559.742V170.781Z" fill="#CDE7F9"></path> <path d="M541.32 170.781H480.914V183.633H541.32V170.781Z" fill="#0879F9"></path> <path d="M571.832 385.962C571.832 385.962 566.859 364.335 553.599 368.79C540.338 373.271 510.424 357.368 502.472 370.37C494.495 383.372 506.901 408.339 524.254 400.025C541.607 391.712 555.049 393.369 565.357 393.68C575.821 393.991 571.832 385.962 571.832 385.962Z" fill="#407BFF"></path> <path d="M591.568 429.448C591.568 429.448 588.098 382.336 558.857 382.077C558.857 382.077 531.066 383.942 516.925 381.015" stroke="#1B2638" stroke-width="2.74495" stroke-miterlimit="10" stroke-linecap="round" stroke-linejoin="round"></path> <path d="M587.242 408.572C587.242 408.572 605.631 387.645 606.201 402.201C606.667 414.244 587.242 408.572 587.242 408.572Z" stroke="#1B2638" stroke-width="2.74495" stroke-miterlimit="10" stroke-linecap="round" stroke-linejoin="round"></path> <path d="M587.061 408.028C587.061 408.028 570.071 407.51 572.35 415.021C574.629 422.558 587.061 408.028 587.061 408.028Z" stroke="#1B2638" stroke-width="2.74495" stroke-miterlimit="10" stroke-linecap="round" stroke-linejoin="round"></path> <path d="M539.794 364.076C541.196 364.076 542.332 362.94 542.332 361.538C542.332 360.136 541.196 359 539.794 359C538.392 359 537.256 360.136 537.256 361.538C537.256 362.94 538.392 364.076 539.794 364.076Z" fill="#407BFF"></path> <path d="M550.151 325.152L556.763 343.033L539.153 327.979L521.543 312.925L544.601 315.242L567.658 317.559L550.151 325.152Z" stroke="#1B2638" stroke-width="3.65993" stroke-miterlimit="10" stroke-linecap="round" stroke-linejoin="round"></path> </svg> 